<?xml version="1.0" encoding="UTF-8" standalone="no"?>
<svg
   xmlns:dc="http://purl.org/dc/elements/1.1/"
   xmlns:cc="http://creativecommons.org/ns#"
   xmlns:rdf="http://www.w3.org/1999/02/22-rdf-syntax-ns#"
   xmlns:svg="http://www.w3.org/2000/svg"
   xmlns="http://www.w3.org/2000/svg"
   xmlns:sodipodi="http://sodipodi.sourceforge.net/DTD/sodipodi-0.dtd"
   xmlns:inkscape="http://www.inkscape.org/namespaces/inkscape"
   viewBox="0 0 30 30"
   version="1.1"
   id="svg8"
   sodipodi:docname="medic-patient.svg"
   inkscape:version="0.92.4 (5da689c313, 2019-01-14)">
  <metadata
     id="metadata14">
    <rdf:RDF>
      <cc:Work
         rdf:about="">
        <dc:format>image/svg+xml</dc:format>
        <dc:type
           rdf:resource="http://purl.org/dc/dcmitype/StillImage" />
      </cc:Work>
    </rdf:RDF>
  </metadata>
  <defs
     id="defs12" />
  <sodipodi:namedview
     pagecolor="#ffffff"
     bordercolor="#666666"
     borderopacity="1"
     objecttolerance="10"
     gridtolerance="10"
     guidetolerance="10"
     inkscape:pageopacity="0"
     inkscape:pageshadow="2"
     inkscape:window-width="1920"
     inkscape:window-height="1017"
     id="namedview10"
     showgrid="false"
     inkscape:zoom="7.8666667"
     inkscape:cx="-0.82627119"
     inkscape:cy="15"
     inkscape:window-x="-8"
     inkscape:window-y="-8"
     inkscape:window-maximized="1"
     inkscape:current-layer="g6" />
  <g
     id="g6">
    <circle
       cx="15.02"
       cy="9.17"
       r="5.7"
       fill="#f47963"
       id="circle2"
       style="fill:#008080" />
    <path
       d="M25.16,21a8.88,8.88,0,0,0-.86-2.23,6,6,0,0,0-4.6-3.39,7.74,7.74,0,0,1-9.4,0,6,6,0,0,0-4.6,3.39A8.88,8.88,0,0,0,4.84,21a7.68,7.68,0,0,0,0,3.75,3.27,3.27,0,0,0,2,2A4.69,4.69,0,0,0,8.41,27H21.59a4.69,4.69,0,0,0,1.54-.25,3.27,3.27,0,0,0,2-2A7.68,7.68,0,0,0,25.16,21Z"
       fill="#f47963"
       fill-rule="evenodd"
       id="path4"
       style="fill:#008080" />
  </g>
</svg>
